<svg version="1.1" viewBox="0.0 0.0 600.0 371.0" fill="none" stroke="none" stroke-linecap="square" stroke-miterlimit="10" width="600" height="371" xmlns:xlink="http://www.w3.org/1999/xlink" xmlns="http://www.w3.org/2000/svg"><path fill="#ffffff" fill-opacity="0.0" d="M0 0L600.0 0L600.0 371.0L0 371.0L0 0Z" fill-rule="nonzero"/><path fill="#fc391d" d="M300.0 18.55C347.1933 18.55 392.18195 38.52381 423.8338 73.529045C455.48566 108.53427 470.84348 155.30038 466.1071 202.25539L300.0 185.5Z" fill-rule="nonzero"/><path fill="#d8dcdf" d="M466.1071 202.25539C457.07184 291.82748 378.6438 358.1043 288.81927 352.0752C198.99475 346.04605 130.12747 269.8826 133.14372 179.9065C136.15999 89.930405 209.97336 18.55 300.0 18.55L300.0 185.5Z" fill-rule="nonzero"/><path fill="#000000" d="M19.096874 284.60678L20.159374 284.51303Q20.2375 285.16928 20.51875 285.57553Q20.8 285.98178 21.378124 286.2474Q21.971874 286.4974 22.70625 286.4974Q23.346874 286.4974 23.846874 286.3099Q24.346874 286.10678 24.58125 285.77866Q24.83125 285.4349 24.83125 285.04428Q24.83125 284.63803 24.596874 284.34116Q24.3625 284.02866 23.83125 283.82553Q23.471874 283.6849 22.284374 283.40366Q21.1125 283.1224 20.64375 282.8724Q20.01875 282.54428 19.721874 282.07553Q19.425 281.59116 19.425 280.9974Q19.425 280.35678 19.784374 279.79428Q20.159374 279.21616 20.8625 278.9349Q21.58125 278.63803 22.440624 278.63803Q23.39375 278.63803 24.128124 278.95053Q24.8625 279.2474 25.253124 279.85678Q25.64375 280.45053 25.675 281.20053L24.58125 281.27866Q24.4875 280.46616 23.971874 280.0599Q23.471874 279.63803 22.4875 279.63803Q21.45625 279.63803 20.9875 280.01303Q20.51875 280.38803 20.51875 280.91928Q20.51875 281.38803 20.846874 281.6849Q21.175 281.98178 22.55 282.29428Q23.940624 282.60678 24.45625 282.84116Q25.20625 283.20053 25.565624 283.73178Q25.925 284.2474 25.925 284.95053Q25.925 285.63803 25.534374 286.2474Q25.14375 286.84116 24.409374 287.1849Q23.675 287.51303 22.753124 287.51303Q21.58125 287.51303 20.784374 287.1849Q20.003124 286.84116 19.55 286.15366Q19.1125 285.46616 19.096874 284.60678ZM29.64375 286.4349L29.8 287.35678Q29.346874 287.45053 29.003124 287.45053Q28.425 287.45053 28.1125 287.27866Q27.8 287.09116 27.659374 286.79428Q27.534374 286.4974 27.534374 285.54428L27.534374 281.96616L26.76875 281.96616L26.76875 281.15366L27.534374 281.15366L27.534374 279.60678L28.58125 278.98178L28.58125 281.15366L29.64375 281.15366L29.64375 281.96616L28.58125 281.96616L28.58125 285.60678Q28.58125 286.0599 28.628124 286.1849Q28.690624 286.3099 28.815624 286.38803Q28.940624 286.46616 29.175 286.46616Q29.3625 286.46616 29.64375 286.4349ZM29.95625 284.26303Q29.95625 282.52866 30.909374 281.70053Q31.70625 281.01303 32.8625 281.01303Q34.14375 281.01303 34.95625 281.85678Q35.784374 282.6849 35.784374 284.16928Q35.784374 285.3724 35.425 286.0599Q35.065624 286.7474 34.3625 287.13803Q33.675 287.51303 32.8625 287.51303Q31.565624 287.51303 30.753124 286.6849Q29.95625 285.84116 29.95625 284.26303ZM31.034374 284.26303Q31.034374 285.45053 31.55 286.04428Q32.08125 286.63803 32.8625 286.63803Q33.659374 286.63803 34.175 286.04428Q34.690624 285.45053 34.690624 284.23178Q34.690624 283.07553 34.159374 282.48178Q33.64375 281.88803 32.8625 281.88803Q32.08125 281.88803 31.55 282.48178Q31.034374 283.0599 31.034374 284.26303ZM37.346874 289.76303L37.346874 281.15366L38.3 281.15366L38.3 281.95053Q38.64375 281.48178 39.065624 281.2474Q39.503124 281.01303 40.1125 281.01303Q40.909374 281.01303 41.51875 281.41928Q42.128124 281.82553 42.425 282.57553Q42.7375 283.32553 42.7375 284.21616Q42.7375 285.16928 42.39375 285.9349Q42.065624 286.70053 41.409374 287.10678Q40.753124 287.51303 40.034374 287.51303Q39.503124 287.51303 39.08125 287.29428Q38.659374 287.0599 38.39375 286.73178L38.39375 289.76303L37.346874 289.76303ZM38.3 284.29428Q38.3 285.4974 38.784374 286.07553Q39.26875 286.63803 39.95625 286.63803Q40.659374 286.63803 41.159374 286.04428Q41.659374 285.45053 41.659374 284.20053Q41.659374 283.01303 41.175 282.4349Q40.690624 281.84116 40.003124 281.84116Q39.33125 281.84116 38.815624 282.46616Q38.3 283.09116 38.3 284.29428ZM43.925 285.51303L44.95625 285.35678Q45.05 285.98178 45.440624 286.3099Q45.846874 286.63803 46.58125 286.63803Q47.3 286.63803 47.64375 286.35678Q48.003124 286.0599 48.003124 285.65366Q48.003124 285.29428 47.690624 285.09116Q47.471874 284.95053 46.6125 284.73178Q45.45625 284.4349 45.003124 284.23178Q44.565624 284.01303 44.33125 283.63803Q44.096874 283.26303 44.096874 282.79428Q44.096874 282.38803 44.284374 282.02866Q44.471874 281.66928 44.8 281.4349Q45.05 281.26303 45.471874 281.13803Q45.89375 281.01303 46.39375 281.01303Q47.1125 281.01303 47.659374 281.23178Q48.221874 281.4349 48.4875 281.79428Q48.753124 282.15366 48.846874 282.7474L47.815624 282.88803Q47.753124 282.41928 47.409374 282.15366Q47.08125 281.8724 46.45625 281.8724Q45.7375 281.8724 45.425 282.1224Q45.1125 282.35678 45.1125 282.6849Q45.1125 282.88803 45.2375 283.04428Q45.378124 283.21616 45.64375 283.32553Q45.8 283.38803 46.58125 283.59116Q47.70625 283.90366 48.14375 284.09116Q48.58125 284.27866 48.83125 284.63803Q49.08125 284.9974 49.08125 285.54428Q49.08125 286.07553 48.76875 286.54428Q48.471874 286.9974 47.89375 287.26303Q47.315624 287.51303 46.58125 287.51303Q45.3625 287.51303 44.721874 287.01303Q44.096874 286.4974 43.925 285.51303ZM54.4875 287.3724L54.4875 278.77866L58.3 278.77866Q59.45625 278.77866 60.05 279.01303Q60.64375 279.2474 61.003124 279.84116Q61.3625 280.41928 61.3625 281.1224Q61.3625 282.04428 60.76875 282.66928Q60.175 283.29428 58.940624 283.46616Q59.39375 283.6849 59.628124 283.88803Q60.128124 284.34116 60.565624 285.02866L62.065624 287.3724L60.628124 287.3724L59.503124 285.59116Q59.003124 284.8099 58.675 284.40366Q58.3625 283.9974 58.096874 283.84116Q57.846874 283.66928 57.58125 283.59116Q57.39375 283.5599 56.95625 283.5599L55.628124 283.5599L55.628124 287.3724L54.4875 287.3724ZM55.628124 282.57553L58.08125 282.57553Q58.846874 282.57553 59.284374 282.41928Q59.7375 282.2474 59.95625 281.90366Q60.190624 281.54428 60.190624 281.1224Q60.190624 280.51303 59.7375 280.1224Q59.3 279.73178 58.346874 279.73178L55.628124 279.73178L55.628124 282.57553ZM67.425 287.3724L67.425 286.45053Q66.69063 287.51303 65.44063 287.51303Q64.89375 287.51303 64.40938 287.3099Q63.940624 287.09116 63.70625 286.77866Q63.471874 286.45053 63.378124 285.98178Q63.315624 285.6849 63.315624 284.9974L63.315624 281.15366L64.37813 281.15366L64.37813 284.60678Q64.37813 285.41928 64.44063 285.71616Q64.53438 286.1224 64.84688 286.3724Q65.175 286.60678 65.65938 286.60678Q66.12813 286.60678 66.53438 286.3724Q66.95625 286.1224 67.12813 285.70053Q67.31563 285.27866 67.31563 284.48178L67.31563 281.15366L68.3625 281.15366L68.3625 287.3724L67.425 287.3724ZM70.34688 287.3724L70.34688 281.15366L71.28438 281.15366L71.28438 282.02866Q71.97188 281.01303 73.26875 281.01303Q73.83125 281.01303 74.3 281.21616Q74.78438 281.41928 75.01875 281.7474Q75.25313 282.07553 75.34688 282.51303Q75.39375 282.8099 75.39375 283.54428L75.39375 287.3724L74.34688 287.3724L74.34688 283.59116Q74.34688 282.9349 74.22188 282.6224Q74.09688 282.3099 73.78438 282.1224Q73.47188 281.91928 73.05 281.91928Q72.37813 281.91928 71.87813 282.35678Q71.39375 282.77866 71.39375 283.96616L71.39375 287.3724L70.34688 287.3724ZM77.34688 287.3724L77.34688 281.15366L78.28438 281.15366L78.28438 282.02866Q78.97188 281.01303 80.26875 281.01303Q80.83125 281.01303 81.3 281.21616Q81.78438 281.41928 82.01875 281.7474Q82.25313 282.07553 82.34688 282.51303Q82.39375 282.8099 82.39375 283.54428L82.39375 287.3724L81.34688 287.3724L81.34688 283.59116Q81.34688 282.9349 81.22188 282.6224Q81.09688 282.3099 80.78438 282.1224Q80.47188 281.91928 80.05 281.91928Q79.37813 281.91928 78.87813 282.35678Q78.39375 282.77866 78.39375 283.96616L78.39375 287.3724L77.34688 287.3724ZM84.34688 279.9974L84.34688 278.77866L85.40938 278.77866L85.40938 279.9974L84.34688 279.9974ZM84.34688 287.3724L84.34688 281.15366L85.40938 281.15366L85.40938 287.3724L84.34688 287.3724ZM87.34688 287.3724L87.34688 281.15366L88.28438 281.15366L88.28438 282.02866Q88.97188 281.01303 90.26875 281.01303Q90.83125 281.01303 91.3 281.21616Q91.78438 281.41928 92.01875 281.7474Q92.25313 282.07553 92.34688 282.51303Q92.39375 282.8099 92.39375 283.54428L92.39375 287.3724L91.34688 287.3724L91.34688 283.59116Q91.34688 282.9349 91.22188 282.6224Q91.09688 282.3099 90.78438 282.1224Q90.47188 281.91928 90.05 281.91928Q89.37813 281.91928 88.87813 282.35678Q88.39375 282.77866 88.39375 283.96616L88.39375 287.3724L87.34688 287.3724ZM94.14375 287.88803L95.175 288.04428Q95.2375 288.51303 95.53438 288.73178Q95.925 289.02866 96.59688 289.02866Q97.33125 289.02866 97.72188 288.73178Q98.12813 288.4349 98.26875 287.91928Q98.3625 287.59116 98.34688 286.5599Q97.65938 287.3724 96.62813 287.3724Q95.34688 287.3724 94.64375 286.45053Q93.94063 285.51303 93.94063 284.23178Q93.94063 283.34116 94.25313 282.59116Q94.58125 281.82553 95.19063 281.41928Q95.8 281.01303 96.62813 281.01303Q97.7375 281.01303 98.45625 281.90366L98.45625 281.15366L99.425 281.15366L99.425 286.52866Q99.425 287.98178 99.12813 288.59116Q98.83125 289.20053 98.19063 289.54428Q97.55 289.90366 96.6125 289.90366Q95.50313 289.90366 94.81563 289.40366Q94.12813 288.90366 94.14375 287.88803ZM95.01875 284.15366Q95.01875 285.3724 95.50313 285.9349Q95.9875 286.4974 96.72188 286.4974Q97.45625 286.4974 97.94063 285.9349Q98.44063 285.3724 98.44063 284.1849Q98.44063 283.04428 97.925 282.46616Q97.425 281.88803 96.70625 281.88803Q96.00313 281.88803 95.50313 282.46616Q95.01875 283.02866 95.01875 284.15366Z" fill-rule="nonzero"/><path fill="#9e9e9e" d="M19.1125 296.90366L19.1125 295.88803L24.675 295.88803L24.675 296.71616Q23.8625 297.59116 23.05 299.04428Q22.253124 300.48178 21.815624 302.01303Q21.4875 303.09116 21.409374 304.3724L20.315624 304.3724Q20.33125 303.35678 20.70625 301.91928Q21.096874 300.48178 21.8 299.15366Q22.51875 297.82553 23.33125 296.90366L19.1125 296.90366ZM26.05 302.10678L27.1125 301.96616Q27.284374 302.85678 27.721874 303.26303Q28.159374 303.65366 28.784374 303.65366Q29.534374 303.65366 30.05 303.13803Q30.565624 302.6224 30.565624 301.85678Q30.565624 301.13803 30.08125 300.66928Q29.6125 300.1849 28.878124 300.1849Q28.58125 300.1849 28.128124 300.3099L28.253124 299.3724Q28.3625 299.38803 28.425 299.38803Q29.096874 299.38803 29.628124 299.04428Q30.175 298.6849 30.175 297.95053Q30.175 297.3724 29.784374 296.9974Q29.39375 296.60678 28.76875 296.60678Q28.159374 296.60678 27.7375 296.9974Q27.33125 297.38803 27.221874 298.15366L26.159374 297.96616Q26.346874 296.91928 27.034374 296.34116Q27.721874 295.7474 28.7375 295.7474Q29.440624 295.7474 30.034374 296.0599Q30.628124 296.35678 30.940624 296.8724Q31.253124 297.38803 31.253124 297.98178Q31.253124 298.52866 30.95625 298.9974Q30.659374 299.45053 30.08125 299.71616Q30.83125 299.88803 31.253124 300.45053Q31.675 300.9974 31.675 301.84116Q31.675 302.96616 30.846874 303.7474Q30.034374 304.52866 28.784374 304.52866Q27.659374 304.52866 26.909374 303.85678Q26.159374 303.16928 26.05 302.10678ZM33.6125 304.3724L33.6125 303.16928L34.815624 303.16928L34.815624 304.3724Q34.815624 305.02866 34.58125 305.4349Q34.346874 305.85678 33.846874 306.07553L33.55 305.6224Q33.878124 305.48178 34.034374 305.1849Q34.190624 304.90366 34.221874 304.3724L33.6125 304.3724ZM39.425 304.3724L39.425 302.3099L35.70625 302.3099L35.70625 301.34116L39.628124 295.77866L40.4875 295.77866L40.4875 301.34116L41.64375 301.34116L41.64375 302.3099L40.4875 302.3099L40.4875 304.3724L39.425 304.3724ZM39.425 301.34116L39.425 297.48178L36.7375 301.34116L39.425 301.34116ZM43.253124 297.84116Q43.253124 296.91928 43.70625 296.27866Q44.175 295.63803 45.05 295.63803Q45.8625 295.63803 46.39375 296.21616Q46.925 296.79428 46.925 297.90366Q46.925 298.9974 46.378124 299.59116Q45.846874 300.16928 45.065624 300.16928Q44.284374 300.16928 43.76875 299.59116Q43.253124 299.01303 43.253124 297.84116ZM45.08125 296.35678Q44.690624 296.35678 44.425 296.70053Q44.175 297.04428 44.175 297.95053Q44.175 298.77866 44.425 299.1224Q44.690624 299.45053 45.08125 299.45053Q45.4875 299.45053 45.7375 299.10678Q46.003124 298.76303 46.003124 297.8724Q46.003124 297.02866 45.7375 296.70053Q45.471874 296.35678 45.08125 296.35678ZM45.08125 304.6849L49.784374 295.63803L50.64375 295.63803L45.95625 304.6849L45.08125 304.6849ZM48.8 302.35678Q48.8 301.4349 49.253124 300.79428Q49.721874 300.15366 50.6125 300.15366Q51.425 300.15366 51.95625 300.73178Q52.4875 301.29428 52.4875 302.41928Q52.4875 303.51303 51.940624 304.10678Q51.409374 304.6849 50.6125 304.6849Q49.846874 304.6849 49.315624 304.10678Q48.8 303.52866 48.8 302.35678ZM50.64375 300.8724Q50.2375 300.8724 49.971874 301.21616Q49.721874 301.5599 49.721874 302.46616Q49.721874 303.27866 49.9875 303.6224Q50.253124 303.96616 50.64375 303.96616Q51.034374 303.96616 51.3 303.6224Q51.565624 303.27866 51.565624 302.3724Q51.565624 301.54428 51.3 301.21616Q51.034374 300.8724 50.64375 300.8724Z" fill-rule="nonzero"/><path stroke="#757575" stroke-width="1.0" stroke-linecap="butt" d="M18.55 291.8724L127.05 291.8724L182.3579 291.8724" fill-rule="nonzero"/><path fill="#9e9e9e" d="M184.3579 291.8724C184.3579 290.76785 183.46246 289.8724 182.3579 289.8724C181.25333 289.8724 180.3579 290.76785 180.3579 291.8724C180.3579 292.977 181.25333 293.8724 182.3579 293.8724C183.46246 293.8724 184.3579 292.977 184.3579 291.8724" fill-rule="nonzero"/><path fill="#000000" d="M503.325 74.627594L503.325 66.033844L504.46564 66.033844L504.46564 70.29947L508.73126 66.033844L510.27814 66.033844L506.66876 69.51822L510.4344 74.627594L508.9344 74.627594L505.8719 70.283844L504.46564 71.64322L504.46564 74.627594L503.325 74.627594ZM515.4969 72.627594L516.59064 72.752594Q516.34064 73.70572 515.6375 74.23697Q514.9344 74.76822 513.85626 74.76822Q512.4969 74.76822 511.6844 73.92447Q510.8875 73.08072 510.8875 71.565094Q510.8875 70.002594 511.7 69.14322Q512.5125 68.26822 513.79376 68.26822Q515.04376 68.26822 515.825 69.11197Q516.6219 69.95572 516.6219 71.502594Q516.6219 71.596344 516.6219 71.783844L511.98126 71.783844Q512.04376 72.815094 512.5594 73.36197Q513.075 73.89322 513.85626 73.89322Q514.4344 73.89322 514.84064 73.596344Q515.2625 73.283844 515.4969 72.627594ZM512.04376 70.92447L515.5125 70.92447Q515.45 70.127594 515.1219 69.73697Q514.60626 69.127594 513.8094 69.127594Q513.075 69.127594 512.575 69.61197Q512.09064 70.096344 512.04376 70.92447ZM522.4969 72.627594L523.59064 72.752594Q523.34064 73.70572 522.6375 74.23697Q521.9344 74.76822 520.85626 74.76822Q519.4969 74.76822 518.6844 73.92447Q517.8875 73.08072 517.8875 71.565094Q517.8875 70.002594 518.7 69.14322Q519.5125 68.26822 520.79376 68.26822Q522.04376 68.26822 522.825 69.11197Q523.6219 69.95572 523.6219 71.502594Q523.6219 71.596344 523.6219 71.783844L518.98126 71.783844Q519.04376 72.815094 519.5594 73.36197Q520.075 73.89322 520.85626 73.89322Q521.4344 73.89322 521.84064 73.596344Q522.2625 73.283844 522.4969 72.627594ZM519.04376 70.92447L522.5125 70.92447Q522.45 70.127594 522.1219 69.73697Q521.60626 69.127594 520.8094 69.127594Q520.075 69.127594 519.575 69.61197Q519.09064 70.096344 519.04376 70.92447ZM525.2469 77.01822L525.2469 68.408844L526.2 68.408844L526.2 69.20572Q526.54376 68.73697 526.96564 68.502594Q527.40314 68.26822 528.0125 68.26822Q528.8094 68.26822 529.41876 68.67447Q530.02814 69.08072 530.325 69.83072Q530.6375 70.58072 530.6375 71.471344Q530.6375 72.42447 530.29376 73.190094Q529.96564 73.95572 529.3094 74.36197Q528.65314 74.76822 527.9344 74.76822Q527.40314 74.76822 526.98126 74.54947Q526.5594 74.315094 526.29376 73.98697L526.29376 77.01822L525.2469 77.01822ZM526.2 71.54947Q526.2 72.752594 526.6844 73.33072Q527.16876 73.89322 527.85626 73.89322Q528.5594 73.89322 529.0594 73.29947Q529.5594 72.70572 529.5594 71.45572Q529.5594 70.26822 529.075 69.690094Q528.59064 69.096344 527.90314 69.096344Q527.23126 69.096344 526.71564 69.721344Q526.2 70.346344 526.2 71.54947ZM531.825 72.76822L532.85626 72.61197Q532.95 73.23697 533.34064 73.565094Q533.7469 73.89322 534.48126 73.89322Q535.2 73.89322 535.54376 73.61197Q535.90314 73.315094 535.90314 72.908844Q535.90314 72.54947 535.59064 72.346344Q535.3719 72.20572 534.5125 71.98697Q533.35626 71.690094 532.90314 71.48697Q532.46564 71.26822 532.23126 70.89322Q531.9969 70.51822 531.9969 70.04947Q531.9969 69.64322 532.1844 69.283844Q532.3719 68.92447 532.7 68.690094Q532.95 68.51822 533.3719 68.39322Q533.79376 68.26822 534.29376 68.26822Q535.0125 68.26822 535.5594 68.48697Q536.1219 68.690094 536.3875 69.04947Q536.65314 69.408844 536.7469 70.002594L535.71564 70.14322Q535.65314 69.67447 535.3094 69.408844Q534.98126 69.127594 534.35626 69.127594Q533.6375 69.127594 533.325 69.377594Q533.0125 69.61197 533.0125 69.940094Q533.0125 70.14322 533.1375 70.29947Q533.27814 70.471344 533.54376 70.58072Q533.7 70.64322 534.48126 70.846344Q535.60626 71.158844 536.04376 71.346344Q536.48126 71.533844 536.73126 71.89322Q536.98126 72.252594 536.98126 72.79947Q536.98126 73.33072 536.66876 73.79947Q536.3719 74.252594 535.79376 74.51822Q535.21564 74.76822 534.48126 74.76822Q533.2625 74.76822 532.6219 74.26822Q531.9969 73.752594 531.825 72.76822ZM542.3875 74.627594L542.3875 66.033844L546.2 66.033844Q547.35626 66.033844 547.95 66.26822Q548.54376 66.502594 548.90314 67.096344Q549.2625 67.67447 549.2625 68.377594Q549.2625 69.29947 548.66876 69.92447Q548.075 70.54947 546.84064 70.721344Q547.29376 70.940094 547.52814 71.14322Q548.02814 71.596344 548.46564 72.283844L549.96564 74.627594L548.52814 74.627594L547.40314 72.846344Q546.90314 72.065094 546.575 71.658844Q546.2625 71.252594 545.9969 71.096344Q545.7469 70.92447 545.48126 70.846344Q545.29376 70.815094 544.85626 70.815094L543.52814 70.815094L543.52814 74.627594L542.3875 74.627594ZM543.52814 69.83072L545.98126 69.83072Q546.7469 69.83072 547.1844 69.67447Q547.6375 69.502594 547.85626 69.158844Q548.09064 68.79947 548.09064 68.377594Q548.09064 67.76822 547.6375 67.377594Q547.2 66.98697 546.2469 66.98697L543.52814 66.98697L543.52814 69.83072ZM555.325 74.627594L555.325 73.70572Q554.59064 74.76822 553.34064 74.76822Q552.79376 74.76822 552.3094 74.565094Q551.84064 74.346344 551.60626 74.033844Q551.3719 73.70572 551.27814 73.23697Q551.21564 72.940094 551.21564 72.252594L551.21564 68.408844L552.27814 68.408844L552.27814 71.86197Q552.27814 72.67447 552.34064 72.971344Q552.4344 73.377594 552.7469 73.627594Q553.075 73.86197 553.5594 73.86197Q554.02814 73.86197 554.4344 73.627594Q554.85626 73.377594 555.02814 72.95572Q555.21564 72.533844 555.21564 71.73697L555.21564 68.408844L556.2625 68.408844L556.2625 74.627594L555.325 74.627594ZM558.2469 74.627594L558.2469 68.408844L559.1844 68.408844L559.1844 69.283844Q559.8719 68.26822 561.16876 68.26822Q561.73126 68.26822 562.2 68.471344Q562.6844 68.67447 562.91876 69.002594Q563.15314 69.33072 563.2469 69.76822Q563.29376 70.065094 563.29376 70.79947L563.29376 74.627594L562.2469 74.627594L562.2469 70.846344Q562.2469 70.190094 562.1219 69.877594Q561.9969 69.565094 561.6844 69.377594Q561.3719 69.17447 560.95 69.17447Q560.27814 69.17447 559.77814 69.61197Q559.29376 70.033844 559.29376 71.221344L559.29376 74.627594L558.2469 74.627594ZM565.2469 67.252594L565.2469 66.033844L566.3094 66.033844L566.3094 67.252594L565.2469 67.252594ZM565.2469 74.627594L565.2469 68.408844L566.3094 68.408844L566.3094 74.627594L565.2469 74.627594ZM568.2469 74.627594L568.2469 68.408844L569.1844 68.408844L569.1844 69.283844Q569.8719 68.26822 571.16876 68.26822Q571.73126 68.26822 572.2 68.471344Q572.6844 68.67447 572.91876 69.002594Q573.15314 69.33072 573.2469 69.76822Q573.29376 70.065094 573.29376 70.79947L573.29376 74.627594L572.2469 74.627594L572.2469 70.846344Q572.2469 70.190094 572.1219 69.877594Q571.9969 69.565094 571.6844 69.377594Q571.3719 69.17447 570.95 69.17447Q570.27814 69.17447 569.77814 69.61197Q569.29376 70.033844 569.29376 71.221344L569.29376 74.627594L568.2469 74.627594ZM575.04376 75.14322L576.075 75.29947Q576.1375 75.76822 576.4344 75.98697Q576.825 76.283844 577.4969 76.283844Q578.23126 76.283844 578.6219 75.98697Q579.02814 75.690094 579.16876 75.17447Q579.2625 74.846344 579.2469 73.815094Q578.5594 74.627594 577.52814 74.627594Q576.2469 74.627594 575.54376 73.70572Q574.84064 72.76822 574.84064 71.48697Q574.84064 70.596344 575.15314 69.846344Q575.48126 69.08072 576.09064 68.67447Q576.7 68.26822 577.52814 68.26822Q578.6375 68.26822 579.35626 69.158844L579.35626 68.408844L580.325 68.408844L580.325 73.783844Q580.325 75.23697 580.02814 75.846344Q579.73126 76.45572 579.09064 76.79947Q578.45 77.158844 577.5125 77.158844Q576.40314 77.158844 575.71564 76.658844Q575.02814 76.158844 575.04376 75.14322ZM575.91876 71.408844Q575.91876 72.627594 576.40314 73.190094Q576.8875 73.752594 577.6219 73.752594Q578.35626 73.752594 578.84064 73.190094Q579.34064 72.627594 579.34064 71.440094Q579.34064 70.29947 578.825 69.721344Q578.325 69.14322 577.60626 69.14322Q576.90314 69.14322 576.40314 69.721344Q575.91876 70.283844 575.91876 71.408844Z" fill-rule="nonzero"/><path fill="#9e9e9e" d="M552.4969 90.61197L552.4969 91.627594L546.8094 91.627594Q546.8094 91.252594 546.9344 90.89322Q547.15314 90.315094 547.6219 89.752594Q548.10626 89.190094 549.0125 88.45572Q550.41876 87.29947 550.90314 86.627594Q551.40314 85.95572 551.40314 85.36197Q551.40314 84.73697 550.95 84.315094Q550.4969 83.877594 549.77814 83.877594Q549.0125 83.877594 548.5594 84.33072Q548.10626 84.783844 548.09064 85.596344L547.0125 85.48697Q547.1219 84.26822 547.84064 83.64322Q548.575 83.002594 549.8094 83.002594Q551.04376 83.002594 551.7625 83.690094Q552.48126 84.377594 552.48126 85.39322Q552.48126 85.908844 552.2625 86.408844Q552.0594 86.89322 551.5594 87.45572Q551.075 88.002594 549.95 88.95572Q548.9969 89.752594 548.71564 90.04947Q548.45 90.33072 548.27814 90.61197L552.4969 90.61197ZM559.41876 85.14322L558.3719 85.221344Q558.23126 84.596344 557.98126 84.315094Q557.54376 83.86197 556.91876 83.86197Q556.41876 83.86197 556.02814 84.14322Q555.54376 84.51822 555.2469 85.221344Q554.96564 85.908844 554.95 87.190094Q555.325 86.61197 555.8719 86.33072Q556.4344 86.04947 557.04376 86.04947Q558.09064 86.04947 558.825 86.83072Q559.575 87.61197 559.575 88.83072Q559.575 89.64322 559.21564 90.346344Q558.8719 91.033844 558.2625 91.408844Q557.65314 91.76822 556.8875 91.76822Q555.5594 91.76822 554.73126 90.79947Q553.90314 89.83072 553.90314 87.61197Q553.90314 85.11197 554.825 83.98697Q555.6219 83.002594 556.98126 83.002594Q557.9969 83.002594 558.6375 83.58072Q559.29376 84.14322 559.41876 85.14322ZM555.1219 88.846344Q555.1219 89.39322 555.34064 89.89322Q555.575 90.377594 555.98126 90.64322Q556.40314 90.908844 556.8719 90.908844Q557.52814 90.908844 558.0125 90.377594Q558.4969 89.83072 558.4969 88.908844Q558.4969 88.01822 558.0125 87.502594Q557.54376 86.98697 556.825 86.98697Q556.10626 86.98697 555.60626 87.502594Q555.1219 88.01822 555.1219 88.846344ZM561.5125 91.627594L561.5125 90.42447L562.71564 90.42447L562.71564 91.627594Q562.71564 92.283844 562.48126 92.690094Q562.2469 93.11197 561.7469 93.33072L561.45 92.877594Q561.77814 92.73697 561.9344 92.440094Q562.09064 92.158844 562.1219 91.627594L561.5125 91.627594ZM569.41876 85.14322L568.3719 85.221344Q568.23126 84.596344 567.98126 84.315094Q567.54376 83.86197 566.91876 83.86197Q566.41876 83.86197 566.02814 84.14322Q565.54376 84.51822 565.2469 85.221344Q564.96564 85.908844 564.95 87.190094Q565.325 86.61197 565.8719 86.33072Q566.4344 86.04947 567.04376 86.04947Q568.09064 86.04947 568.825 86.83072Q569.575 87.61197 569.575 88.83072Q569.575 89.64322 569.21564 90.346344Q568.8719 91.033844 568.2625 91.408844Q567.65314 91.76822 566.8875 91.76822Q565.5594 91.76822 564.73126 90.79947Q563.90314 89.83072 563.90314 87.61197Q563.90314 85.11197 564.825 83.98697Q565.6219 83.002594 566.98126 83.002594Q567.9969 83.002594 568.6375 83.58072Q569.29376 84.14322 569.41876 85.14322ZM565.1219 88.846344Q565.1219 89.39322 565.34064 89.89322Q565.575 90.377594 565.98126 90.64322Q566.40314 90.908844 566.8719 90.908844Q567.52814 90.908844 568.0125 90.377594Q568.4969 89.83072 568.4969 88.908844Q568.4969 88.01822 568.0125 87.502594Q567.54376 86.98697 566.825 86.98697Q566.10626 86.98697 565.60626 87.502594Q565.1219 88.01822 565.1219 88.846344ZM571.15314 85.096344Q571.15314 84.17447 571.60626 83.533844Q572.075 82.89322 572.95 82.89322Q573.7625 82.89322 574.29376 83.471344Q574.825 84.04947 574.825 85.158844Q574.825 86.252594 574.27814 86.846344Q573.7469 87.42447 572.96564 87.42447Q572.1844 87.42447 571.66876 86.846344Q571.15314 86.26822 571.15314 85.096344ZM572.98126 83.61197Q572.59064 83.61197 572.325 83.95572Q572.075 84.29947 572.075 85.20572Q572.075 86.033844 572.325 86.377594Q572.59064 86.70572 572.98126 86.70572Q573.3875 86.70572 573.6375 86.36197Q573.90314 86.01822 573.90314 85.127594Q573.90314 84.283844 573.6375 83.95572Q573.3719 83.61197 572.98126 83.61197ZM572.98126 91.940094L577.6844 82.89322L578.54376 82.89322L573.85626 91.940094L572.98126 91.940094ZM576.7 89.61197Q576.7 88.690094 577.15314 88.04947Q577.6219 87.408844 578.5125 87.408844Q579.325 87.408844 579.85626 87.98697Q580.3875 88.54947 580.3875 89.67447Q580.3875 90.76822 579.84064 91.36197Q579.3094 91.940094 578.5125 91.940094Q577.7469 91.940094 577.21564 91.36197Q576.7 90.783844 576.7 89.61197ZM578.54376 88.127594Q578.1375 88.127594 577.8719 88.471344Q577.6219 88.815094 577.6219 89.721344Q577.6219 90.533844 577.8875 90.877594Q578.15314 91.221344 578.54376 91.221344Q578.9344 91.221344 579.2 90.877594Q579.46564 90.533844 579.46564 89.627594Q579.46564 88.79947 579.2 88.471344Q578.9344 88.127594 578.54376 88.127594Z" fill-rule="nonzero"/><path stroke="#757575" stroke-width="1.0" stroke-linecap="butt" d="M581.45 79.127594L472.95 79.127594L417.6421 79.127594" fill-rule="nonzero"/><path fill="#9e9e9e" d="M419.6421 79.127594C419.6421 78.02302 418.74667 77.127594 417.6421 77.127594C416.53754 77.127594 415.6421 78.02302 415.6421 79.127594C415.6421 80.23216 416.53754 81.127594 417.6421 81.127594C418.74667 81.127594 419.6421 80.23216 419.6421 79.127594" fill-rule="nonzero"/></svg>